<svg version="1.1" viewBox="0 0 351.87 94.999">
  <defs>
    <marker id="marker3157" overflow="visible" orient="auto">
      <path transform="matrix(.8 0 0 .8 10 0)" d="m0 0 5-5-17.5 5 17.5 5z" fill="#000000" fill-rule="evenodd" stroke="#000000" stroke-width="1pt"/>
    </marker>
    <marker id="marker1169" overflow="visible" orient="auto">
      <path transform="matrix(.8 0 0 .8 10 0)" d="m0 0 5-5-17.5 5 17.5 5z" fill="#000000" fill-rule="evenodd" stroke="#000000" stroke-width="1pt"/>
    </marker>
  </defs>
  <g transform="translate(-12.932 -7.2486)" fill="#cd4632" fill-opacity=".8" stroke="#000000" stroke-width=".26458px">
    <path d="m22.605 10.159 4.9907 5.2843-0.58714 77.209-2.055 3.5229h20.256l-4.6972-4.4036 0.58714-76.329 5.5779-4.9907 14.679 4.11 7.6329 8.8072-0.29357 14.679-7.0457 8.5136-7.3393 3.2293 6.165 7.6329 3.8164 7.9264 0.88072 16.146 4.9907 9.9815 12.917 6.165 10.862-0.88072 4.11-4.4036-0.29357-3.2293-4.11-0.88072-3.2293 0.88072-0.29357 3.5229 1.7614 1.4679-4.9907 0.29357-4.4036-3.8164-2.6422-15.853-3.8164-12.624-6.4586-5.8714-11.449-5.8714 11.743-2.9357 8.5136-7.0457 4.9907-12.624-4.6972-10.569-9.3943-6.7522z"/>
    <path d="m114.49 59.942 6.9933-0.39962-2.3977-10.19-8.7916-4.3958-10.59-0.1998-5.195 4.3958-4.5956 6.3938-1.1988 10.39 3.7963 8.9914 8.1921 5.7944 8.7915 0.79923-7.7925-5.3948-4.5956-8.1921-0.59942-8.1921 3.5965-10.19 4.196-3.5965 5.5946 0.39962 4.3958 7.1931z"/>
    <path d="m152.25 46.355 0.79924 3.9962-1.9981 3.9962 3.1969 2.3977 4.7954-0.79923 0.39961-4.7954-5.3948-5.3948-12.388-1.1988-8.1921 3.7963-4.5956 5.9942-2.1979 8.7915 4.3958 12.588 11.389 5.7944 6.194-0.19981-10.989-7.3929-3.1969-10.989 3.5965-13.587 4.3958-3.1969z"/>
    <path d="m167.84 46.555 7.9923-1.3987 0.39962 36.365h-8.1921z"/>
    <path d="m170.64 25.775-2.5975 2.9971-0.39962 2.7973 3.1969 1.5985 4.5956-1.9981-0.39961-3.1969z"/>
    <path d="m185.02 46.755 9.5908-1.7983 0.19981 4.196 5.195-4.5956s5.3948-0.59942 6.194-0.59942 6.194 1.5985 6.194 1.5985l7.7925 8.3919 1.5985 9.7906-3.7964 11.189-6.7935 5.195-6.5936 0.59942 4.9952-3.5965 4.3958-11.389-2.7973-14.986-3.9962-5.195-6.3938-0.59942-6.3938 6.3938-0.59942 48.353-6.7935 0.99904 0.99903-51.75z"/>
    <path d="m251.36 60.142h7.7925l-2.1979-10.989-9.1912-5.195-12.188 2.3977-6.7935 6.194-2.9971 11.789 4.9952 12.188 9.1912 4.5956 6.9933-0.1998-11.389-8.5917-1.1988-11.988 4.3958-12.588 7.1931-2.1979 4.7954 5.5946z"/>
    <path d="m290.52 24.976 7.1931-1.1988-0.3996 57.145h-6.5936l-0.19981-4.5956-8.3919 5.195-7.7925-1.1988-7.5927-5.7944-2.9971-11.389 2.9971-11.389 7.7925-6.9933h6.194l-6.194 5.195-2.9971 14.786 2.5975 10.79 5.5946 4.5956 2.7973 0.19981 5.195-0.99904 3.7964-5.3948z"/>
    <path d="m312.1 46.355 7.3929-1.3987 0.39963 36.165h-8.1921z"/>
    <path d="m312.3 26.574h5.7944l1.5984 4.196-3.5965 3.3967-4.5956-1.3987z"/>
    <path d="m353.66 43.758c0.99904 0 7.3929 0.39962 7.3929 0.39962l-0.39962 37.364-6.7935-0.59942-0.19981-3.3967-4.3958 3.7963-8.3919 0.19981-9.1911-4.5956-4.196-10.19 1.3987-13.387 7.5927-7.3929 7.5927-1.1988-7.5927 7.3929-1.5985 16.384 4.9952 10.39 6.194 1.1988 2.5975-0.39962 5.5946-2.9971z"/>
  </g>
  <g transform="translate(-12.932 -7.2486)" fill="none" stroke="#000000" stroke-width="3.2">
    <g>
      <path d="m12.932 9.907h47.201c17.6 1.9539 22.794 10.51 22.641 19.769-0.18663 11.252-12.623 22.242-40.401 21.379"/>
      <path d="m17.131 94.448h7.953c2.0376-0.99592 2.1964-1.6815 2.3954-3.537v-74.127c0.06511-2.6982-1.0336-4.8608-4.2431-5.3532l-10.304-0.02868"/>
      <path d="m17.131 95.197h33.85" marker-mid="url(#marker3157)"/>
      <path d="m12.932 11.31h38.159c14.362 1.7976 18.695 10.684 18.531 18.116-0.18198 8.244-4.4292 20.428-27.249 20.354"/>
      <path d="m53.716 11.664c-10.015-0.52125-11.859 1.6801-12.143 5.5705v72.978c0 5.1269 5.8085 4.3027 9.4081 4.3458"/>
      <path d="m42.373 51.056c35.313 0.35115 34.534 15.553 36.799 21.773 2.2879 9.1592 0.62226 22.423 10.602 22.902"/>
      <path d="m42.373 51.056c10.507 2.4054 21.812 0.48212 22.444 22.948 0.75922 18.479 10.901 24.373 24.958 23.52"/>
    </g>
    <path d="m89.909 97.524c2.4772-0.0578 4.819-0.6579 6.7655-3.6804 1.2844-1.9943 0.38447-4.1385-2.903-4.7277-3.8069-0.68229-4.8868 2.7343-2.852 6.0994z" stroke-linecap="round"/>
  </g>
  <g transform="translate(-12.932 -7.2486)" display="none" fill="none" stroke="#000000">
    <g>
      <path d="m19.691 8.8486h37.675c14.048 1.6207 18.194 8.7176 18.071 16.397-0.14896 9.3328-10.075 18.449-32.247 17.733" stroke-width="3.2"/>
      <path d="m23.042 79.848h6.3479c1.6264-0.82606 1.7531-1.3947 1.912-2.9337v-62.362c0.05197-2.238-0.82497-4.0318-3.3867-4.4402l-8.2247-0.02379" stroke-width="3.2"/>
      <path d="m23.042 80.469h27.019" marker-mid="url(#marker1169)" stroke-width="4.5"/>
      <g stroke-width="3.2">
        <path d="m19.691 10.012h30.458c11.463 1.491 14.922 8.8618 14.791 15.026-0.14525 6.8379-3.5353 16.943-21.749 16.882"/>
        <path d="m52.243 10.306c-7.9934-0.43234-9.4655 1.3936-9.6921 4.6204v61.409c0 4.2524 4.6362 3.5688 7.5094 3.6045"/>
        <path d="m43.19 42.979c28.186 0.29126 27.564 12.9 29.372 18.06 1.8261 7.597 0.49668 18.16 8.4626 18.557"/>
        <path d="m43.19 42.979c8.3862 1.9951 17.409 0.39989 17.914 19.034 0.60599 15.328 8.701 19.777 19.921 19.07"/>
      </g>
    </g>
    <path d="m81.554 81.083c1.9773-0.04797 3.8464-0.54568 5.4001-3.0527 1.0251-1.6542 0.30688-3.4327-2.3171-3.9214-3.0386-0.56592-3.9005 2.2679-2.2764 5.059z" stroke-linecap="round" stroke-width="3.2"/>
  </g>
  <g transform="translate(-12.932 -7.2486)">
    <path d="m96.805 60.558h24.685c0-7.2763-2.46-15.644-14.96-15.913-12.237-0.26398-17.888 11.016-17.681 18.852 0.29796 11.322 8.3547 17.779 18.565 17.837 8.0094 0.04494 11.89-3.4334 14.076-7.9863-2.5298 3.4187-5.6176 6.8656-11.866 6.2182-6.9392-0.71903-12.898-5.6614-12.898-16.068 0-8.5871 3.1154-17.778 9.8033-17.654 6.6879 0.12445 7.404 8.2173 7.404 14.715" fill="none" stroke="#000000" stroke-width="3.2"/>
  </g>
  <g transform="translate(-12.932 -7.2486)">
    <path d="m234.5 60.558h24.685c0-7.2763-2.46-15.644-14.96-15.913-12.237-0.26398-17.888 11.016-17.681 18.852 0.29796 11.322 8.3547 17.779 18.565 17.837 8.0094 0.04494 11.89-3.4334 14.076-7.9863-2.5298 3.4187-5.6176 6.8656-11.866 6.2182-6.9392-0.71903-12.898-5.6614-12.898-16.068 0-8.5871 3.1154-17.778 9.8034-17.654s7.404 8.2173 7.404 14.715" fill="none" stroke="#000000" stroke-width="3.2"/>
  </g>
  <g transform="translate(-12.932 -7.2486)">
    <path d="m159.86 73.348c-1.8525 3.0281-5.9777 6.3593-11.049 6.2182-11.142-0.31006-13.713-10.083-13.714-16.068-2e-3 -6.4662 2.0724-18.526 11.258-17.896 2.1855 0.14982 6.2154 0.26791 6.3636 4.0368-0.0625 2.3535-1.3917 2.6912-1.3311 4.2574 0.10411 2.6911 2.3861 2.7552 4.0223 2.7696 0.83094 0.0073 4.2349 0.20828 4.0368-2.9902-0.20959-3.3839-4.7203-9.2668-13.092-9.223-13.607 0.07125-19.433 10.23-19.218 19.046-0.2365 7.343 5.9593 17.798 18.404 17.837 8.2178 0.02548 11.555-3.5329 14.319-7.9863" fill="none" stroke="#000000" stroke-width="3.2"/>
  </g>
  <g transform="translate(-12.932 -7.2486)" fill="none" stroke="#000000" stroke-width="3.2">
    <g>
      <path d="m162.1 47.644c1.2972 0 13.621-2.2768 13.621-2.2768l0.18531 35.263 5.7833 0.19974" stroke-linejoin="round"/>
      <path d="m168.3 47.383v33.247l-6.1978 0.19974" stroke-linejoin="round"/>
      <path d="m162.1 81.156h19.589"/>
    </g>
    <ellipse cx="171.37" cy="29.992" rx="3.9377" ry="3.6095" stroke-linecap="round" stroke-linejoin="round"/>
  </g>
  <g transform="translate(-12.932 -7.2486)" fill="none" stroke="#000000" stroke-width="3.2">
    <g>
      <path d="m306.05 47.644c1.2972 0 13.621-2.2768 13.621-2.2768l0.18531 35.263 5.7833 0.19951" stroke-linejoin="round"/>
      <path d="m312.25 47.383v33.247l-6.1978 0.19974" stroke-linejoin="round"/>
      <path d="m306.05 81.156h19.589"/>
    </g>
    <ellipse cx="315.32" cy="29.992" rx="3.9377" ry="3.6095" stroke-linecap="round" stroke-linejoin="round"/>
  </g>
  <g transform="translate(-12.932 -7.2486)" fill="none" stroke="#000000" stroke-width="3.2">
    <path d="m181.4 47.914c2.0359-0.11908 12.992-2.8718 12.992-2.8718v54.854l6.4432 0.30036" stroke-linejoin="round"/>
    <path d="m194.37 49.98c0.55028-2.8875 5.7203-5.6608 9.9168-5.6856 10.259-0.06067 16.961 8.6302 16.925 18.511-0.0332 8.9555-5.8558 18.33-16.925 18.511-4.5395 0.07414-8.7789-3.1419-9.9168-5.1567"/>
    <path d="m194.46 50.509c1.8215-3.4905 3.8208-5.615 8.3656-5.6853 6.5552-0.10145 10.739 9.3187 10.71 17.982-0.0276 8.2324-3.3173 17.672-10.71 17.453-3.667-0.10832-6.4475-1.9941-8.3656-5.1573"/>
    <path d="m181.4 49.119h6.4531v50.776l-6.4531 0.30036" stroke-linejoin="round"/>
    <path d="m181.4 100.65h19.435"/>
  </g>
  <g transform="translate(-12.932 -7.2486)" fill="none" stroke="#000000" stroke-width="3.2">
    <path d="m303.51 81.156h-12.64v-55.924" stroke-linejoin="round"/>
    <path d="m290.9 75.647c-0.55028 2.8875-5.7203 5.6608-9.9168 5.6856-10.259 0.06067-16.961-8.6302-16.925-18.511 0.0332-8.9555 5.8558-18.33 16.925-18.511 4.5395-0.07414 8.7789 3.1419 9.9168 5.1567"/>
    <path d="m290.8 75.118c-1.8215 3.4905-3.8208 5.615-8.3656 5.6853-6.5552 0.10145-10.739-9.3187-10.71-17.982 0.0276-8.2324 3.3173-17.672 10.71-17.453 3.667 0.10832 6.4475 1.9941 8.3656 5.1573"/>
    <path d="m303.51 80.83-6.1017-0.2v-56.698s-11.928 2.317-12.982 2.317" stroke-linejoin="round"/>
  </g>
  <g transform="translate(-12.932 -7.2486)" fill="none" stroke="#000000" stroke-width="3.2">
    <path d="m364.72 81.156h-10.479v-37.063s8.4992 0.2005 10.479 0.2005" stroke-linejoin="round"/>
    <path d="m354.27 75.647c-0.55028 2.8875-5.7203 5.6608-9.9168 5.6856-10.259 0.06067-16.961-8.6302-16.925-18.511 0.0332-8.9555 5.8558-18.33 16.925-18.511 4.5395-0.07414 8.7789 3.1419 9.9168 5.1567"/>
    <path d="m354.17 75.118c-1.8215 3.4905-3.8208 5.615-8.3656 5.6853-6.5552 0.10145-10.739-9.3187-10.71-17.982 0.0276-8.2324 3.3173-17.672 10.71-17.453 3.667 0.10832 6.4475 1.9941 8.3656 5.1573"/>
    <path d="m364.72 80.83-3.9407-0.2v-36.688" stroke-linejoin="round"/>
  </g>
</svg>
