<svg version="1.1" viewBox="0 0 85.889 90.896">
  <defs>
    <marker id="marker3157" overflow="visible" orient="auto">
      <path transform="matrix(.8 0 0 .8 10 0)" d="m0 0 5-5-17.5 5 17.5 5z" fill="#000000" fill-rule="evenodd" stroke="#000000" stroke-width="1pt"/>
    </marker>
  </defs>
  <g transform="translate(-12.928 -8.307)">
    <path d="m22.605 10.159 4.9907 5.2843-0.58714 77.209-2.055 3.5229h20.256l-4.6972-4.4036 0.58714-76.329 5.5779-4.9907 14.679 4.11 7.6329 8.8072-0.29357 14.679-7.0457 8.5136-7.3393 3.2293 6.165 7.6329 3.8164 7.9264 0.88072 16.146 4.9907 9.9815 12.917 6.165 10.862-0.88072 4.11-4.4036-0.29357-3.2293-4.11-0.88072-3.2293 0.88072-0.29357 3.5229 1.7614 1.4679-4.9907 0.29357-4.4036-3.8164-2.6422-15.853-3.8164-12.624-6.4586-5.8714-11.449-5.8714 11.743-2.9357 8.5136-7.0457 4.9907-12.624-4.6972-10.569-9.3943-6.7522z" fill="#cd4632" fill-opacity=".8" stroke="#000000" stroke-width=".26458px"/>
  </g>
  <g transform="translate(-12.928 -8.307)" fill="none" stroke="#000000" stroke-width="3.2">
    <g>
      <path d="m12.932 9.907h47.201c17.6 1.9539 22.794 10.51 22.641 19.769-0.18663 11.252-12.623 22.242-40.401 21.379"/>
      <path d="m17.131 94.448h7.953c2.0376-0.99592 2.1964-1.6815 2.3954-3.537v-74.127c0.06511-2.6982-1.0336-4.8608-4.2431-5.3532l-10.304-0.02868"/>
      <path d="m17.131 95.197h33.85" marker-mid="url(#marker3157)"/>
      <path d="m12.932 11.31h38.159c14.362 1.7976 18.695 10.684 18.531 18.116-0.18198 8.244-4.4292 20.428-27.249 20.354"/>
      <path d="m53.716 11.664c-10.015-0.52125-11.859 1.6801-12.143 5.5705v72.978c0 5.1269 5.8085 4.3027 9.4081 4.3458"/>
      <path d="m42.373 51.056c35.313 0.35115 34.534 15.553 36.799 21.773 2.2879 9.1592 0.62226 22.423 10.602 22.902"/>
      <path d="m42.373 51.056c10.507 2.4054 21.812 0.48212 22.444 22.948 0.75922 18.479 10.901 24.373 24.958 23.52"/>
    </g>
    <path d="m89.909 97.524c2.4772-0.0578 4.819-0.6579 6.7655-3.6804 1.2844-1.9943 0.38447-4.1385-2.903-4.7277-3.8069-0.68229-4.8868 2.7343-2.852 6.0994z" stroke-linecap="round"/>
  </g>
</svg>
