<?xml version="1.0" standalone="no"?>
<!DOCTYPE svg PUBLIC "-//W3C//DTD SVG 20010904//EN"
 "http://www.w3.org/TR/2001/REC-SVG-20010904/DTD/svg10.dtd">
<svg version="1.0" xmlns="http://www.w3.org/2000/svg"
 width="512.000000pt" height="512.000000pt" viewBox="0 0 512.000000 512.000000"
 preserveAspectRatio="xMidYMid meet">

<g transform="translate(0.000000,512.000000) scale(0.100000,-0.100000)"
fill="#000000" stroke="none">
<path d="M2340 4903 c-336 -34 -655 -136 -947 -301 l-82 -47 -3 -585 c-4 -516
-6 -592 -21 -645 -32 -111 -76 -184 -164 -272 l-83 -83 0 -1105 0 -1105 99
-74 c314 -233 606 -362 1016 -447 72 -15 367 -37 450 -33 164 7 268 17 350 34
28 5 62 11 76 14 71 12 271 71 374 111 126 49 294 132 393 195 l62 39 0 1961
0 1960 -57 37 c-278 178 -649 306 -995 343 -90 9 -387 11 -468 3z m420 -1144
c88 -17 95 -18 166 -40 173 -53 330 -147 468 -279 255 -244 380 -538 379 -890
-2 -318 -113 -595 -333 -824 -151 -158 -304 -256 -502 -320 -139 -45 -229 -60
-378 -60 -149 0 -239 15 -378 60 -198 64 -351 162 -502 320 -223 232 -333 509
-333 834 0 209 42 382 136 565 84 161 251 347 404 448 167 111 388 186 588
200 67 5 227 -3 285 -14z"/>
<path d="M2055 3067 c-47 -26 -85 -92 -85 -147 0 -42 35 -105 72 -133 36 -27
125 -34 164 -14 16 8 42 29 59 46 24 26 30 41 33 94 3 52 0 67 -20 97 -28 42
-99 80 -148 80 -19 0 -53 -10 -75 -23z"/>
<path d="M2895 3067 c-57 -32 -87 -88 -82 -155 6 -89 62 -143 154 -150 49 -3
64 0 93 20 55 37 80 83 80 143 0 66 -29 112 -90 143 -56 28 -104 28 -155 -1z"/>
<path d="M2417 2469 c-167 -23 -315 -95 -427 -208 -137 -138 -173 -223 -114
-270 30 -24 72 -27 96 -8 8 6 33 37 55 67 22 30 67 80 99 110 104 95 217 138
394 147 232 12 422 -66 539 -223 75 -99 92 -114 127 -114 48 0 79 30 79 77 0
30 -11 53 -47 104 -108 152 -257 255 -432 299 -94 24 -272 33 -369 19z"/>
<path d="M375 4691 c-11 -5 -29 -19 -40 -31 -19 -21 -20 -38 -23 -604 -3 -616
1 -681 43 -773 27 -59 90 -132 152 -175 l43 -29 0 -1340 c0 -1463 -3 -1379 58
-1431 93 -78 235 -50 283 55 18 41 19 87 19 1379 l0 1337 43 30 c64 43 115
105 151 180 l31 66 3 643 3 642 -25 25 c-13 13 -36 27 -49 30 -34 9 -91 -19
-106 -51 -8 -18 -11 -182 -11 -564 l0 -539 -22 -15 c-27 -19 -69 -21 -86 -4
-9 9 -12 144 -12 548 0 489 -2 538 -18 570 -32 65 -104 76 -153 24 l-24 -26
-3 -552 -2 -553 -26 -12 c-33 -15 -69 -14 -83 2 -7 9 -11 183 -13 565 l-3 552
-25 25 c-28 27 -74 39 -105 26z"/>
<path d="M4122 4670 c-61 -13 -96 -42 -123 -102 l-24 -53 0 -2066 0 -2065 27
-41 c31 -46 97 -83 149 -83 50 1 112 33 145 76 l29 37 3 1018 2 1018 61 32
c111 59 159 142 159 274 0 39 -11 244 -25 455 -48 728 -55 836 -65 1025 -13
214 -28 306 -66 382 -36 74 -70 95 -158 99 -39 2 -90 -1 -114 -6z"/>
<path d="M4617 3673 c-2 -5 2 -107 9 -228 7 -121 16 -269 19 -330 4 -60 10
-164 15 -230 4 -66 7 -178 6 -250 -2 -110 -5 -137 -24 -178 -26 -58 -111 -150
-169 -184 l-43 -25 0 -549 c0 -302 4 -549 8 -549 14 0 152 216 212 333 166
320 247 638 257 1003 12 399 -57 730 -223 1082 -51 109 -58 120 -67 105z"/>
<path d="M266 3083 c-27 -85 -49 -279 -53 -468 -6 -232 7 -367 53 -573 36
-160 129 -431 150 -435 5 -1 10 265 12 686 1 439 -1 687 -8 687 -5 0 -38 27
-73 60 -36 33 -67 60 -70 60 -3 0 -8 -8 -11 -17z"/>
</g>
</svg>
