<?xml version="1.0" standalone="no"?>
<!DOCTYPE svg PUBLIC "-//W3C//DTD SVG 20010904//EN"
 "http://www.w3.org/TR/2001/REC-SVG-20010904/DTD/svg10.dtd">
<svg version="1.0" xmlns="http://www.w3.org/2000/svg"
 width="225.000000pt" height="225.000000pt" viewBox="0 0 225.000000 225.000000"
 preserveAspectRatio="xMidYMid meet">

<g transform="translate(0.000000,225.000000) scale(0.100000,-0.100000)"
fill="#FFFFFF" stroke="none">
<path d="M1116 2160 c-20 -96 -87 -234 -159 -329 -29 -38 -135 -156 -236 -262
-215 -226 -307 -342 -361 -453 -53 -110 -70 -188 -70 -327 0 -220 61 -369 215
-525 106 -108 207 -171 343 -214 113 -37 130 -38 66 -4 -71 37 -140 109 -177
184 -29 59 -32 73 -32 160 0 87 3 101 32 161 18 35 43 75 56 87 l23 22 45 -41
c45 -42 134 -99 155 -99 9 0 9 11 2 43 -17 73 -2 185 42 316 22 66 45 143 51
172 l12 53 17 -58 c25 -79 50 -114 205 -282 173 -187 200 -237 200 -369 0 -82
-3 -97 -33 -157 -37 -76 -104 -142 -184 -182 -30 -15 -44 -26 -32 -26 44 0
174 44 259 88 72 37 108 64 180 137 155 154 214 289 223 502 7 196 -38 343
-155 508 -49 68 -168 207 -181 213 -4 1 -18 -19 -32 -45 -39 -75 -135 -197
-192 -245 -46 -39 -51 -40 -44 -18 53 171 59 207 60 340 2 275 -57 461 -205
645 -33 41 -64 77 -68 79 -4 3 -15 -31 -25 -74z"/>
<path d="M1248 23 c7 -3 16 -2 19 1 4 3 -2 6 -13 5 -11 0 -14 -3 -6 -6z"/>
</g>
</svg>
