<?xml version="1.0" standalone="no"?>
<!DOCTYPE svg PUBLIC "-//W3C//DTD SVG 20010904//EN"
 "http://www.w3.org/TR/2001/REC-SVG-20010904/DTD/svg10.dtd">
<svg version="1.0" xmlns="http://www.w3.org/2000/svg"
 width="362.000000pt" height="419.000000pt" viewBox="0 0 362.000000 419.000000"
 preserveAspectRatio="xMidYMid meet">

<g transform="translate(0.000000,419.000000) scale(0.100000,-0.100000)"
fill="#FFFFFF" stroke="none">
<path d="M2270 3822 c-8 -3 -18 -10 -22 -16 -4 -6 -8 -163 -8 -348 l0 -338
-55 0 -55 0 0 337 c1 367 0 373 -54 359 -21 -5 -29 -18 -50 -84 -35 -111 -63
-250 -76 -380 -24 -231 31 -422 157 -550 47 -48 157 -112 191 -112 9 0 11 -19
7 -77 -3 -43 -15 -271 -26 -508 -11 -236 -28 -610 -39 -830 -44 -920 -44 -892
-30 -925 21 -51 63 -73 149 -78 97 -5 147 11 179 58 29 41 30 -22 -18 960 -16
338 -37 764 -45 945 -8 182 -17 358 -19 393 -4 44 -2 62 7 62 7 0 40 13 75 30
152 72 257 248 277 462 12 126 -24 369 -80 545 -22 69 -30 84 -51 89 -54 14
-54 11 -54 -357 l0 -339 -55 0 -55 0 -2 341 c-3 332 -4 342 -23 355 -18 12
-24 11 -43 -2 -22 -15 -22 -16 -22 -355 l0 -339 -50 0 -50 0 -2 341 c-3 329
-4 342 -23 354 -11 7 -27 10 -35 7z"/>
<path d="M1204 3804 c-190 -68 -358 -500 -300 -774 34 -159 132 -294 243 -336
27 -10 49 -18 51 -19 3 -2 -34 -774 -99 -2072 -11 -211 -10 -224 8 -255 28
-49 74 -68 163 -68 89 0 135 19 164 69 19 32 19 42 7 295 -7 143 -16 333 -21
421 -5 88 -12 228 -15 310 -3 83 -8 179 -10 215 -3 36 -14 259 -25 495 -11
237 -22 466 -25 510 l-6 80 50 18 c113 40 215 175 248 330 60 282 -108 712
-305 783 -47 17 -77 16 -128 -2z"/>
</g>
</svg>
