<?xml version="1.0" standalone="no"?>
<!DOCTYPE svg PUBLIC "-//W3C//DTD SVG 20010904//EN"
 "http://www.w3.org/TR/2001/REC-SVG-20010904/DTD/svg10.dtd">
<svg version="1.0" xmlns="http://www.w3.org/2000/svg"
 width="512.000000pt" height="512.000000pt" viewBox="0 0 512.000000 512.000000"
 preserveAspectRatio="xMidYMid meet">

<g transform="translate(0.000000,512.000000) scale(0.100000,-0.100000)"
fill="#FFFFFF" stroke="none">
<path d="M2540 5078 c-6 -18 -38 -107 -70 -198 -217 -619 -439 -1076 -921
-1900 -256 -439 -392 -731 -452 -976 -43 -171 -52 -257 -52 -474 1 -227 14
-312 76 -493 154 -450 524 -811 979 -955 159 -50 275 -67 460 -67 118 0 193 5
265 19 619 115 1095 578 1226 1193 30 140 37 379 15 549 -31 239 -94 438 -225
709 -77 157 -140 271 -395 710 -378 649 -596 1111 -811 1723 -37 105 -71 192
-75 192 -5 0 -13 -15 -20 -32z m776 -2459 c286 -500 376 -783 361 -1133 -7
-174 -38 -293 -116 -451 -143 -287 -389 -492 -694 -580 -105 -29 -265 -51
-279 -37 -6 6 24 49 81 116 310 366 460 624 541 930 37 141 48 207 60 385 16
217 -9 558 -65 871 -8 47 -15 89 -15 95 0 20 24 -17 126 -196z"/>
</g>
</svg>
