<?xml version="1.0" standalone="no"?>
<!DOCTYPE svg PUBLIC "-//W3C//DTD SVG 20010904//EN"
 "http://www.w3.org/TR/2001/REC-SVG-20010904/DTD/svg10.dtd">
<svg version="1.0" xmlns="http://www.w3.org/2000/svg"
 width="200.000000pt" height="200.000000pt" viewBox="0 0 200.000000 200.000000"
 preserveAspectRatio="xMidYMid meet">

<g transform="translate(0.000000,200.000000) scale(0.100000,-0.100000)"
fill="#FFFFFF" stroke="none">
<path d="M713 1815 c-95 -76 -178 -164 -187 -199 -3 -13 -47 -111 -97 -217
-231 -490 -289 -689 -261 -891 7 -46 12 -111 12 -145 0 -56 3 -63 30 -86 37
-32 117 -62 245 -93 183 -43 326 -56 692 -61 445 -7 483 -1 583 93 70 66 104
147 104 249 0 65 -5 91 -26 137 -95 206 -350 262 -516 113 l-49 -44 -50 24
c-74 36 -178 50 -260 37 -83 -14 -179 -60 -221 -107 -37 -40 -60 -45 -66 -12
-3 12 -10 103 -17 201 -12 188 -8 282 18 381 17 68 78 205 96 217 7 5 33 6 58
2 39 -5 59 0 117 25 39 17 82 31 96 31 52 0 90 76 49 99 -17 9 -17 11 0 45 25
54 21 78 -20 118 -66 63 -193 148 -222 148 -18 0 -53 -21 -108 -65z"/>
</g>
</svg>
