<?xml version="1.0" standalone="no"?>
<!DOCTYPE svg PUBLIC "-//W3C//DTD SVG 20010904//EN"
 "http://www.w3.org/TR/2001/REC-SVG-20010904/DTD/svg10.dtd">
<svg version="1.0" xmlns="http://www.w3.org/2000/svg"
 width="123.000000pt" height="123.000000pt" viewBox="0 0 123.000000 123.000000"
 preserveAspectRatio="xMidYMid meet">

<g transform="translate(0.000000,123.000000) scale(0.100000,-0.100000)"
fill="#FFFFFF" stroke="none">
<path d="M393 1057 c-122 -45 -216 -85 -210 -88 7 -4 108 -41 225 -84 l212
-77 213 77 c116 43 217 80 224 84 9 5 -344 141 -432 167 -5 2 -110 -34 -232
-79z"/>
<path d="M120 611 c0 -182 1 -331 3 -331 2 0 108 -38 236 -85 128 -47 235 -85
237 -85 2 0 4 148 4 329 l0 329 -222 80 c-123 44 -231 84 -240 87 -17 7 -18
-13 -18 -324z"/>
<path d="M873 853 l-233 -86 0 -328 c0 -181 2 -329 4 -329 2 0 109 38 237 85
128 47 234 85 236 85 2 0 3 149 3 330 0 182 -3 329 -7 329 -5 -1 -113 -40
-240 -86z"/>
</g>
</svg>
